<?xml version="1.0" encoding="UTF-8" standalone="no"?><svg xmlns="http://www.w3.org/2000/svg" xmlns:xlink="http://www.w3.org/1999/xlink" contentStyleType="text/css" height="494px" preserveAspectRatio="none" style="width:1828px;height:494px;background:#FFFFFF;" version="1.1" viewBox="0 0 1828 494" width="1828px" zoomAndPan="magnify"><defs/><g><rect fill="#F1F1F1" height="284.1563" rx="5" ry="5" style="stroke:#F1F1F1;stroke-width:1.5;" width="586" x="10" y="131.5"/><text fill="#000000" font-family="sans-serif" font-size="14" font-weight="bold" lengthAdjust="spacing" textLength="66" x="15" y="146.4951">abilities</text><text fill="#000000" font-family="sans-serif" font-size="14" lengthAdjust="spacing" textLength="12" x="233" y="146.4951">   </text><line style="stroke:#000000;stroke-width:1.0;" x1="228" x2="228" y1="131.5" y2="151.7969"/><line style="stroke:#000000;stroke-width:1.0;" x1="10" x2="596" y1="151.7969" y2="151.7969"/><text fill="#000000" font-family="sans-serif" font-size="14" font-weight="bold" lengthAdjust="spacing" textLength="131" x="15" y="166.792">base_experience</text><text fill="#000000" font-family="sans-serif" font-size="14" lengthAdjust="spacing" textLength="26" x="233" y="166.792">267</text><line style="stroke:#000000;stroke-width:1.0;" x1="228" x2="228" y1="151.7969" y2="172.0938"/><line style="stroke:#000000;stroke-width:1.0;" x1="10" x2="596" y1="172.0938" y2="172.0938"/><text fill="#000000" font-family="sans-serif" font-size="14" font-weight="bold" lengthAdjust="spacing" textLength="48" x="15" y="187.0889">forms</text><text fill="#000000" font-family="sans-serif" font-size="14" lengthAdjust="spacing" textLength="12" x="233" y="187.0889">   </text><line style="stroke:#000000;stroke-width:1.0;" x1="228" x2="228" y1="172.0938" y2="192.3906"/><line style="stroke:#000000;stroke-width:1.0;" x1="10" x2="596" y1="192.3906" y2="192.3906"/><text fill="#000000" font-family="sans-serif" font-size="14" font-weight="bold" lengthAdjust="spacing" textLength="52" x="15" y="207.3857">height</text><text fill="#000000" font-family="sans-serif" font-size="14" lengthAdjust="spacing" textLength="18" x="233" y="207.3857">17</text><line style="stroke:#000000;stroke-width:1.0;" x1="228" x2="228" y1="192.3906" y2="212.6875"/><line style="stroke:#000000;stroke-width:1.0;" x1="10" x2="596" y1="212.6875" y2="212.6875"/><text fill="#000000" font-family="sans-serif" font-size="14" font-weight="bold" lengthAdjust="spacing" textLength="87" x="15" y="227.6826">held_items</text><text fill="#000000" font-family="sans-serif" font-size="14" lengthAdjust="spacing" textLength="12" x="233" y="227.6826">   </text><line style="stroke:#000000;stroke-width:1.0;" x1="228" x2="228" y1="212.6875" y2="232.9844"/><line style="stroke:#000000;stroke-width:1.0;" x1="10" x2="596" y1="232.9844" y2="232.9844"/><text fill="#000000" font-family="sans-serif" font-size="14" font-weight="bold" lengthAdjust="spacing" textLength="15" x="15" y="247.9795">id</text><text fill="#000000" font-family="sans-serif" font-size="14" lengthAdjust="spacing" textLength="9" x="233" y="247.9795">6</text><line style="stroke:#000000;stroke-width:1.0;" x1="228" x2="228" y1="232.9844" y2="253.2813"/><line style="stroke:#000000;stroke-width:1.0;" x1="10" x2="596" y1="253.2813" y2="253.2813"/><text fill="#000000" font-family="sans-serif" font-size="14" font-weight="bold" lengthAdjust="spacing" textLength="80" x="15" y="268.2764">is_default</text><text fill="#000000" font-family="sans-serif" font-size="14" lengthAdjust="spacing" textLength="47" x="233" y="268.2764">☑ true</text><line style="stroke:#000000;stroke-width:1.0;" x1="228" x2="228" y1="253.2813" y2="273.5781"/><line style="stroke:#000000;stroke-width:1.0;" x1="10" x2="596" y1="273.5781" y2="273.5781"/><text fill="#000000" font-family="sans-serif" font-size="14" font-weight="bold" lengthAdjust="spacing" textLength="208" x="15" y="288.5732">location_area_encounters</text><text fill="#000000" font-family="sans-serif" font-size="14" lengthAdjust="spacing" textLength="358" x="233" y="288.5732">https://pokeapi.co/api/v2/pokemon/6/encounters</text><line style="stroke:#000000;stroke-width:1.0;" x1="228" x2="228" y1="273.5781" y2="293.875"/><line style="stroke:#000000;stroke-width:1.0;" x1="10" x2="596" y1="293.875" y2="293.875"/><text fill="#000000" font-family="sans-serif" font-size="14" font-weight="bold" lengthAdjust="spacing" textLength="44" x="15" y="308.8701">name</text><text fill="#000000" font-family="sans-serif" font-size="14" lengthAdjust="spacing" textLength="66" x="233" y="308.8701">charizard</text><line style="stroke:#000000;stroke-width:1.0;" x1="228" x2="228" y1="293.875" y2="314.1719"/><line style="stroke:#000000;stroke-width:1.0;" x1="10" x2="596" y1="314.1719" y2="314.1719"/><text fill="#000000" font-family="sans-serif" font-size="14" font-weight="bold" lengthAdjust="spacing" textLength="43" x="15" y="329.167">order</text><text fill="#000000" font-family="sans-serif" font-size="14" lengthAdjust="spacing" textLength="9" x="233" y="329.167">7</text><line style="stroke:#000000;stroke-width:1.0;" x1="228" x2="228" y1="314.1719" y2="334.4688"/><line style="stroke:#000000;stroke-width:1.0;" x1="10" x2="596" y1="334.4688" y2="334.4688"/><text fill="#000000" font-family="sans-serif" font-size="14" font-weight="bold" lengthAdjust="spacing" textLength="89" x="15" y="349.4639">past_types</text><text fill="#000000" font-family="sans-serif" font-size="14" lengthAdjust="spacing" textLength="12" x="233" y="349.4639">   </text><line style="stroke:#000000;stroke-width:1.0;" x1="228" x2="228" y1="334.4688" y2="354.7656"/><line style="stroke:#000000;stroke-width:1.0;" x1="10" x2="596" y1="354.7656" y2="354.7656"/><text fill="#000000" font-family="sans-serif" font-size="14" font-weight="bold" lengthAdjust="spacing" textLength="60" x="15" y="369.7607">species</text><text fill="#000000" font-family="sans-serif" font-size="14" lengthAdjust="spacing" textLength="12" x="233" y="369.7607">   </text><line style="stroke:#000000;stroke-width:1.0;" x1="228" x2="228" y1="354.7656" y2="375.0625"/><line style="stroke:#000000;stroke-width:1.0;" x1="10" x2="596" y1="375.0625" y2="375.0625"/><text fill="#000000" font-family="sans-serif" font-size="14" font-weight="bold" lengthAdjust="spacing" textLength="45" x="15" y="390.0576">types</text><text fill="#000000" font-family="sans-serif" font-size="14" lengthAdjust="spacing" textLength="12" x="233" y="390.0576">   </text><line style="stroke:#000000;stroke-width:1.0;" x1="228" x2="228" y1="375.0625" y2="395.3594"/><line style="stroke:#000000;stroke-width:1.0;" x1="10" x2="596" y1="395.3594" y2="395.3594"/><text fill="#000000" font-family="sans-serif" font-size="14" font-weight="bold" lengthAdjust="spacing" textLength="55" x="15" y="410.3545">weight</text><text fill="#000000" font-family="sans-serif" font-size="14" lengthAdjust="spacing" textLength="27" x="233" y="410.3545">905</text><line style="stroke:#000000;stroke-width:1.0;" x1="228" x2="228" y1="395.3594" y2="415.6563"/><rect fill="none" height="284.1563" rx="5" ry="5" style="stroke:#000000;stroke-width:1.5;" width="586" x="10" y="131.5"/><rect fill="#F1F1F1" height="40.5938" rx="5" ry="5" style="stroke:#F1F1F1;stroke-width:1.5;" width="22" x="821.5" y="100"/><text fill="#000000" font-family="sans-serif" font-size="14" lengthAdjust="spacing" textLength="12" x="826.5" y="114.9951">   </text><line style="stroke:#000000;stroke-width:1.0;" x1="821.5" x2="843.5" y1="120.2969" y2="120.2969"/><text fill="#000000" font-family="sans-serif" font-size="14" lengthAdjust="spacing" textLength="12" x="826.5" y="135.292">   </text><rect fill="none" height="40.5938" rx="5" ry="5" style="stroke:#000000;stroke-width:1.5;" width="22" x="821.5" y="100"/><rect fill="#F1F1F1" height="60.8906" rx="5" ry="5" style="stroke:#F1F1F1;stroke-width:1.5;" width="146" x="1189" y="21"/><text fill="#000000" font-family="sans-serif" font-size="14" font-weight="bold" lengthAdjust="spacing" textLength="52" x="1194" y="35.9951">ability</text><text fill="#000000" font-family="sans-serif" font-size="14" lengthAdjust="spacing" textLength="12" x="1279" y="35.9951">   </text><line style="stroke:#000000;stroke-width:1.0;" x1="1274" x2="1274" y1="21" y2="41.2969"/><line style="stroke:#000000;stroke-width:1.0;" x1="1189" x2="1335" y1="41.2969" y2="41.2969"/><text fill="#000000" font-family="sans-serif" font-size="14" font-weight="bold" lengthAdjust="spacing" textLength="75" x="1194" y="56.292">is_hidden</text><text fill="#000000" font-family="sans-serif" font-size="14" lengthAdjust="spacing" textLength="51" x="1279" y="56.292">☐ false</text><line style="stroke:#000000;stroke-width:1.0;" x1="1274" x2="1274" y1="41.2969" y2="61.5938"/><line style="stroke:#000000;stroke-width:1.0;" x1="1189" x2="1335" y1="61.5938" y2="61.5938"/><text fill="#000000" font-family="sans-serif" font-size="14" font-weight="bold" lengthAdjust="spacing" textLength="32" x="1194" y="76.5889">slot</text><text fill="#000000" font-family="sans-serif" font-size="14" lengthAdjust="spacing" textLength="9" x="1279" y="76.5889">1</text><line style="stroke:#000000;stroke-width:1.0;" x1="1274" x2="1274" y1="61.5938" y2="81.8906"/><rect fill="none" height="60.8906" rx="5" ry="5" style="stroke:#000000;stroke-width:1.5;" width="146" x="1189" y="21"/><rect fill="#F1F1F1" height="40.5938" rx="5" ry="5" style="stroke:#F1F1F1;stroke-width:1.5;" width="326" x="1490" y="10"/><text fill="#000000" font-family="sans-serif" font-size="14" font-weight="bold" lengthAdjust="spacing" textLength="44" x="1495" y="24.9951">name</text><text fill="#000000" font-family="sans-serif" font-size="14" lengthAdjust="spacing" textLength="39" x="1549" y="24.9951">blaze</text><line style="stroke:#000000;stroke-width:1.0;" x1="1544" x2="1544" y1="10" y2="30.2969"/><line style="stroke:#000000;stroke-width:1.0;" x1="1490" x2="1816" y1="30.2969" y2="30.2969"/><text fill="#000000" font-family="sans-serif" font-size="14" font-weight="bold" lengthAdjust="spacing" textLength="22" x="1495" y="45.292">url</text><text fill="#000000" font-family="sans-serif" font-size="14" lengthAdjust="spacing" textLength="262" x="1549" y="45.292">https://pokeapi.co/api/v2/ability/66/</text><line style="stroke:#000000;stroke-width:1.0;" x1="1544" x2="1544" y1="30.2969" y2="50.5938"/><rect fill="none" height="40.5938" rx="5" ry="5" style="stroke:#000000;stroke-width:1.5;" width="326" x="1490" y="10"/><rect fill="#F1F1F1" height="60.8906" rx="5" ry="5" style="stroke:#F1F1F1;stroke-width:1.5;" width="142" x="1191" y="100"/><text fill="#000000" font-family="sans-serif" font-size="14" font-weight="bold" lengthAdjust="spacing" textLength="52" x="1196" y="114.9951">ability</text><text fill="#000000" font-family="sans-serif" font-size="14" lengthAdjust="spacing" textLength="12" x="1281" y="114.9951">   </text><line style="stroke:#000000;stroke-width:1.0;" x1="1276" x2="1276" y1="100" y2="120.2969"/><line style="stroke:#000000;stroke-width:1.0;" x1="1191" x2="1333" y1="120.2969" y2="120.2969"/><text fill="#000000" font-family="sans-serif" font-size="14" font-weight="bold" lengthAdjust="spacing" textLength="75" x="1196" y="135.292">is_hidden</text><text fill="#000000" font-family="sans-serif" font-size="14" lengthAdjust="spacing" textLength="47" x="1281" y="135.292">☑ true</text><line style="stroke:#000000;stroke-width:1.0;" x1="1276" x2="1276" y1="120.2969" y2="140.5938"/><line style="stroke:#000000;stroke-width:1.0;" x1="1191" x2="1333" y1="140.5938" y2="140.5938"/><text fill="#000000" font-family="sans-serif" font-size="14" font-weight="bold" lengthAdjust="spacing" textLength="32" x="1196" y="155.5889">slot</text><text fill="#000000" font-family="sans-serif" font-size="14" lengthAdjust="spacing" textLength="9" x="1281" y="155.5889">3</text><line style="stroke:#000000;stroke-width:1.0;" x1="1276" x2="1276" y1="140.5938" y2="160.8906"/><rect fill="none" height="60.8906" rx="5" ry="5" style="stroke:#000000;stroke-width:1.5;" width="142" x="1191" y="100"/><rect fill="#F1F1F1" height="40.5938" rx="5" ry="5" style="stroke:#F1F1F1;stroke-width:1.5;" width="325" x="1490.5" y="89"/><text fill="#000000" font-family="sans-serif" font-size="14" font-weight="bold" lengthAdjust="spacing" textLength="44" x="1495.5" y="103.9951">name</text><text fill="#000000" font-family="sans-serif" font-size="14" lengthAdjust="spacing" textLength="85" x="1549.5" y="103.9951">solar-power</text><line style="stroke:#000000;stroke-width:1.0;" x1="1544.5" x2="1544.5" y1="89" y2="109.2969"/><line style="stroke:#000000;stroke-width:1.0;" x1="1490.5" x2="1815.5" y1="109.2969" y2="109.2969"/><text fill="#000000" font-family="sans-serif" font-size="14" font-weight="bold" lengthAdjust="spacing" textLength="22" x="1495.5" y="124.292">url</text><text fill="#000000" font-family="sans-serif" font-size="14" lengthAdjust="spacing" textLength="261" x="1549.5" y="124.292">https://pokeapi.co/api/v2/ability/94/</text><line style="stroke:#000000;stroke-width:1.0;" x1="1544.5" x2="1544.5" y1="109.2969" y2="129.5938"/><rect fill="none" height="40.5938" rx="5" ry="5" style="stroke:#000000;stroke-width:1.5;" width="325" x="1490.5" y="89"/><rect fill="#F1F1F1" height="20.2969" rx="5" ry="5" style="stroke:#F1F1F1;stroke-width:1.5;" width="22" x="821.5" y="174.5"/><text fill="#000000" font-family="sans-serif" font-size="14" lengthAdjust="spacing" textLength="12" x="826.5" y="189.4951">   </text><rect fill="none" height="20.2969" rx="5" ry="5" style="stroke:#000000;stroke-width:1.5;" width="22" x="821.5" y="174.5"/><rect fill="#F1F1F1" height="40.5938" rx="5" ry="5" style="stroke:#F1F1F1;stroke-width:1.5;" width="382" x="1071" y="179"/><text fill="#000000" font-family="sans-serif" font-size="14" font-weight="bold" lengthAdjust="spacing" textLength="44" x="1076" y="193.9951">name</text><text fill="#000000" font-family="sans-serif" font-size="14" lengthAdjust="spacing" textLength="66" x="1130" y="193.9951">charizard</text><line style="stroke:#000000;stroke-width:1.0;" x1="1125" x2="1125" y1="179" y2="199.2969"/><line style="stroke:#000000;stroke-width:1.0;" x1="1071" x2="1453" y1="199.2969" y2="199.2969"/><text fill="#000000" font-family="sans-serif" font-size="14" font-weight="bold" lengthAdjust="spacing" textLength="22" x="1076" y="214.292">url</text><text fill="#000000" font-family="sans-serif" font-size="14" lengthAdjust="spacing" textLength="318" x="1130" y="214.292">https://pokeapi.co/api/v2/pokemon-form/6/</text><line style="stroke:#000000;stroke-width:1.0;" x1="1125" x2="1125" y1="199.2969" y2="219.5938"/><rect fill="none" height="40.5938" rx="5" ry="5" style="stroke:#000000;stroke-width:1.5;" width="382" x="1071" y="179"/><rect fill="#F1F1F1" height="15" rx="5" ry="5" style="stroke:#F1F1F1;stroke-width:1.5;" width="30" x="821.5" y="214.5"/><rect fill="none" height="15" rx="5" ry="5" style="stroke:#000000;stroke-width:1.5;" width="30" x="821.5" y="214.5"/><rect fill="#F1F1F1" height="15" rx="5" ry="5" style="stroke:#F1F1F1;stroke-width:1.5;" width="30" x="821.5" y="309.5"/><rect fill="none" height="15" rx="5" ry="5" style="stroke:#000000;stroke-width:1.5;" width="30" x="821.5" y="309.5"/><rect fill="#F1F1F1" height="40.5938" rx="5" ry="5" style="stroke:#F1F1F1;stroke-width:1.5;" width="401" x="633" y="344"/><text fill="#000000" font-family="sans-serif" font-size="14" font-weight="bold" lengthAdjust="spacing" textLength="44" x="638" y="358.9951">name</text><text fill="#000000" font-family="sans-serif" font-size="14" lengthAdjust="spacing" textLength="66" x="692" y="358.9951">charizard</text><line style="stroke:#000000;stroke-width:1.0;" x1="687" x2="687" y1="344" y2="364.2969"/><line style="stroke:#000000;stroke-width:1.0;" x1="633" x2="1034" y1="364.2969" y2="364.2969"/><text fill="#000000" font-family="sans-serif" font-size="14" font-weight="bold" lengthAdjust="spacing" textLength="22" x="638" y="379.292">url</text><text fill="#000000" font-family="sans-serif" font-size="14" lengthAdjust="spacing" textLength="337" x="692" y="379.292">https://pokeapi.co/api/v2/pokemon-species/6/</text><line style="stroke:#000000;stroke-width:1.0;" x1="687" x2="687" y1="364.2969" y2="384.5938"/><rect fill="none" height="40.5938" rx="5" ry="5" style="stroke:#000000;stroke-width:1.5;" width="401" x="633" y="344"/><rect fill="#F1F1F1" height="40.5938" rx="5" ry="5" style="stroke:#F1F1F1;stroke-width:1.5;" width="22" x="821.5" y="403"/><text fill="#000000" font-family="sans-serif" font-size="14" lengthAdjust="spacing" textLength="12" x="826.5" y="417.9951">   </text><line style="stroke:#000000;stroke-width:1.0;" x1="821.5" x2="843.5" y1="423.2969" y2="423.2969"/><text fill="#000000" font-family="sans-serif" font-size="14" lengthAdjust="spacing" textLength="12" x="826.5" y="438.292">   </text><rect fill="none" height="40.5938" rx="5" ry="5" style="stroke:#000000;stroke-width:1.5;" width="22" x="821.5" y="403"/><rect fill="#F1F1F1" height="40.5938" rx="5" ry="5" style="stroke:#F1F1F1;stroke-width:1.5;" width="68" x="1228" y="373"/><text fill="#000000" font-family="sans-serif" font-size="14" font-weight="bold" lengthAdjust="spacing" textLength="32" x="1233" y="387.9951">slot</text><text fill="#000000" font-family="sans-serif" font-size="14" lengthAdjust="spacing" textLength="9" x="1279" y="387.9951">1</text><line style="stroke:#000000;stroke-width:1.0;" x1="1274" x2="1274" y1="373" y2="393.2969"/><line style="stroke:#000000;stroke-width:1.0;" x1="1228" x2="1296" y1="393.2969" y2="393.2969"/><text fill="#000000" font-family="sans-serif" font-size="14" font-weight="bold" lengthAdjust="spacing" textLength="36" x="1233" y="408.292">type</text><text fill="#000000" font-family="sans-serif" font-size="14" lengthAdjust="spacing" textLength="12" x="1279" y="408.292">   </text><line style="stroke:#000000;stroke-width:1.0;" x1="1274" x2="1274" y1="393.2969" y2="413.5938"/><rect fill="none" height="40.5938" rx="5" ry="5" style="stroke:#000000;stroke-width:1.5;" width="68" x="1228" y="373"/><rect fill="#F1F1F1" height="40.5938" rx="5" ry="5" style="stroke:#F1F1F1;stroke-width:1.5;" width="315" x="1495.5" y="383"/><text fill="#000000" font-family="sans-serif" font-size="14" font-weight="bold" lengthAdjust="spacing" textLength="44" x="1500.5" y="397.9951">name</text><text fill="#000000" font-family="sans-serif" font-size="14" lengthAdjust="spacing" textLength="25" x="1554.5" y="397.9951">fire</text><line style="stroke:#000000;stroke-width:1.0;" x1="1549.5" x2="1549.5" y1="383" y2="403.2969"/><line style="stroke:#000000;stroke-width:1.0;" x1="1495.5" x2="1810.5" y1="403.2969" y2="403.2969"/><text fill="#000000" font-family="sans-serif" font-size="14" font-weight="bold" lengthAdjust="spacing" textLength="22" x="1500.5" y="418.292">url</text><text fill="#000000" font-family="sans-serif" font-size="14" lengthAdjust="spacing" textLength="251" x="1554.5" y="418.292">https://pokeapi.co/api/v2/type/10/</text><line style="stroke:#000000;stroke-width:1.0;" x1="1549.5" x2="1549.5" y1="403.2969" y2="423.5938"/><rect fill="none" height="40.5938" rx="5" ry="5" style="stroke:#000000;stroke-width:1.5;" width="315" x="1495.5" y="383"/><rect fill="#F1F1F1" height="40.5938" rx="5" ry="5" style="stroke:#F1F1F1;stroke-width:1.5;" width="68" x="1228" y="432"/><text fill="#000000" font-family="sans-serif" font-size="14" font-weight="bold" lengthAdjust="spacing" textLength="32" x="1233" y="446.9951">slot</text><text fill="#000000" font-family="sans-serif" font-size="14" lengthAdjust="spacing" textLength="8" x="1279" y="446.9951">2</text><line style="stroke:#000000;stroke-width:1.0;" x1="1274" x2="1274" y1="432" y2="452.2969"/><line style="stroke:#000000;stroke-width:1.0;" x1="1228" x2="1296" y1="452.2969" y2="452.2969"/><text fill="#000000" font-family="sans-serif" font-size="14" font-weight="bold" lengthAdjust="spacing" textLength="36" x="1233" y="467.292">type</text><text fill="#000000" font-family="sans-serif" font-size="14" lengthAdjust="spacing" textLength="12" x="1279" y="467.292">   </text><line style="stroke:#000000;stroke-width:1.0;" x1="1274" x2="1274" y1="452.2969" y2="472.5938"/><rect fill="none" height="40.5938" rx="5" ry="5" style="stroke:#000000;stroke-width:1.5;" width="68" x="1228" y="432"/><rect fill="#F1F1F1" height="40.5938" rx="5" ry="5" style="stroke:#F1F1F1;stroke-width:1.5;" width="306" x="1500" y="442"/><text fill="#000000" font-family="sans-serif" font-size="14" font-weight="bold" lengthAdjust="spacing" textLength="44" x="1505" y="456.9951">name</text><text fill="#000000" font-family="sans-serif" font-size="14" lengthAdjust="spacing" textLength="40" x="1559" y="456.9951">flying</text><line style="stroke:#000000;stroke-width:1.0;" x1="1554" x2="1554" y1="442" y2="462.2969"/><line style="stroke:#000000;stroke-width:1.0;" x1="1500" x2="1806" y1="462.2969" y2="462.2969"/><text fill="#000000" font-family="sans-serif" font-size="14" font-weight="bold" lengthAdjust="spacing" textLength="22" x="1505" y="477.292">url</text><text fill="#000000" font-family="sans-serif" font-size="14" lengthAdjust="spacing" textLength="242" x="1559" y="477.292">https://pokeapi.co/api/v2/type/3/</text><line style="stroke:#000000;stroke-width:1.0;" x1="1554" x2="1554" y1="462.2969" y2="482.5938"/><rect fill="none" height="40.5938" rx="5" ry="5" style="stroke:#000000;stroke-width:1.5;" width="306" x="1500" y="442"/><path d="M1323.5,30.5 L1336.5,30.5 C1383.8884,30.5 1435.2743,30.5 1482.5647,30.5 " fill="none" style="stroke:#000000;stroke-width:1.0;stroke-dasharray:3.0,3.0;"/><path d="M1482.5647,33.5214 L1484.8308,30.5 L1482.5647,27.4786 L1490.1182,30.5 L1482.5647,33.5214 " fill="#000000" style="stroke:#000000;stroke-width:1.0;"/><ellipse cx="1323.5" cy="30.5" fill="#000000" rx="3" ry="3" style="stroke:#000000;stroke-width:1.0;"/><path d="M834,109.5 L847,109.5 C964.4393,109.5 1098.8049,86.382 1181.9148,69.3365 " fill="none" style="stroke:#000000;stroke-width:1.0;stroke-dasharray:3.0,3.0;"/><path d="M1182.5252,72.2898 L1184.1297,68.8788 L1181.3044,66.3833 L1189.2979,67.8106 L1182.5252,72.2898 " fill="#000000" style="stroke:#000000;stroke-width:1.0;"/><ellipse cx="834" cy="109.5" fill="#000000" rx="3" ry="3" style="stroke:#000000;stroke-width:1.0;"/><path d="M1321.5,109.5 L1334.5,109.5 C1382.7124,109.5 1435.0364,109.5 1483.0566,109.5 " fill="none" style="stroke:#000000;stroke-width:1.0;stroke-dasharray:3.0,3.0;"/><path d="M1483.0566,112.5675 L1485.3572,109.5 L1483.0566,106.4325 L1490.7253,109.5 L1483.0566,112.5675 " fill="#000000" style="stroke:#000000;stroke-width:1.0;"/><ellipse cx="1321.5" cy="109.5" fill="#000000" rx="3" ry="3" style="stroke:#000000;stroke-width:1.0;"/><path d="M834,130.5 L847,130.5 C964.4104,130.5 1100.528,130.5 1183.8166,130.5 " fill="none" style="stroke:#000000;stroke-width:1.0;stroke-dasharray:3.0,3.0;"/><path d="M1183.8166,133.5575 L1186.1098,130.5 L1183.8166,127.4425 L1191.4604,130.5 L1183.8166,133.5575 " fill="#000000" style="stroke:#000000;stroke-width:1.0;"/><ellipse cx="834" cy="130.5" fill="#000000" rx="3" ry="3" style="stroke:#000000;stroke-width:1.0;"/><path d="M584,141.5 L597,141.5 C678.0294,141.5 774.0944,129.0657 814.0775,123.3332 " fill="none" style="stroke:#000000;stroke-width:1.0;stroke-dasharray:3.0,3.0;"/><path d="M814.5233,126.3952 L816.374,122.9988 L813.6316,120.2711 L821.7326,122.2185 L814.5233,126.3952 " fill="#000000" style="stroke:#000000;stroke-width:1.0;"/><ellipse cx="584" cy="141.5" fill="#000000" rx="3" ry="3" style="stroke:#000000;stroke-width:1.0;"/><path d="M833.3412,184.4769 L846.3332,184.9327 C879.3562,186.0914 973.4149,189.3918 1063.6679,192.5585 " fill="none" style="stroke:#000000;stroke-width:1.0;stroke-dasharray:3.0,3.0;"/><path d="M1063.5612,195.599 L1065.9483,192.6385 L1063.7746,189.518 L1071.2691,192.8252 L1063.5612,195.599 " fill="#000000" style="stroke:#000000;stroke-width:1.0;"/><ellipse cx="833.3412" cy="184.4769" fill="#000000" rx="3" ry="3" style="stroke:#000000;stroke-width:1.0;"/><path d="M584,181.5 L597,181.5 C677.717,181.5 773.9503,183.2763 814.0277,184.0953 " fill="none" style="stroke:#000000;stroke-width:1.0;stroke-dasharray:3.0,3.0;"/><path d="M813.964,187.1648 L816.3298,184.143 L814.0914,181.0257 L821.7016,184.2545 L813.964,187.1648 " fill="#000000" style="stroke:#000000;stroke-width:1.0;"/><ellipse cx="584" cy="181.5" fill="#000000" rx="3" ry="3" style="stroke:#000000;stroke-width:1.0;"/><path d="M584,222.5 L597,222.5 C677.7105,222.5 773.9473,222.5 814.0266,222.5 " fill="none" style="stroke:#000000;stroke-width:1.0;stroke-dasharray:3.0,3.0;"/><path d="M814.0266,225.5697 L816.3289,222.5 L814.0266,219.4303 L821.7009,222.5 L814.0266,225.5697 " fill="#000000" style="stroke:#000000;stroke-width:1.0;"/><ellipse cx="584" cy="222.5" fill="#000000" rx="3" ry="3" style="stroke:#000000;stroke-width:1.0;"/><path d="M584,344.5 L597,344.5 C613.6058,344.5 616.6562,337.4382 633,334.5 C698.7268,322.6842 778.1246,319.0322 813.8942,317.9428 " fill="none" style="stroke:#000000;stroke-width:1.0;stroke-dasharray:3.0,3.0;"/><path d="M813.9804,321.0356 L816.2138,317.8781 L813.808,314.8499 L821.6263,317.7273 L813.9804,321.0356 " fill="#000000" style="stroke:#000000;stroke-width:1.0;"/><ellipse cx="584" cy="344.5" fill="#000000" rx="3" ry="3" style="stroke:#000000;stroke-width:1.0;"/><path d="M584,364.5 L597,364.5 C606.3756,364.5 615.9607,364.5 625.643,364.5 " fill="none" style="stroke:#000000;stroke-width:1.0;stroke-dasharray:3.0,3.0;"/><path d="M625.643,367.6135 L627.9781,364.5 L625.643,361.3865 L633.4266,364.5 L625.643,367.6135 " fill="#000000" style="stroke:#000000;stroke-width:1.0;"/><ellipse cx="584" cy="364.5" fill="#000000" rx="3" ry="3" style="stroke:#000000;stroke-width:1.0;"/><path d="M1284.5,403.5 L1297.5,403.5 C1359.707,403.5 1428.0457,403.5 1488.0109,403.5 " fill="none" style="stroke:#000000;stroke-width:1.0;stroke-dasharray:3.0,3.0;"/><path d="M1488.0109,406.5588 L1490.305,403.5 L1488.0109,400.4412 L1495.6579,403.5 L1488.0109,406.5588 " fill="#000000" style="stroke:#000000;stroke-width:1.0;"/><ellipse cx="1284.5" cy="403.5" fill="#000000" rx="3" ry="3" style="stroke:#000000;stroke-width:1.0;"/><path d="M834,412.5 L847,412.5 C984.0982,412.5 1146.4363,401.9992 1220.7161,396.6106 " fill="none" style="stroke:#000000;stroke-width:1.0;stroke-dasharray:3.0,3.0;"/><path d="M1220.9433,399.716 L1223.0452,396.4403 L1220.489,393.5053 L1228.4796,396.0427 L1220.9433,399.716 " fill="#000000" style="stroke:#000000;stroke-width:1.0;"/><ellipse cx="834" cy="412.5" fill="#000000" rx="3" ry="3" style="stroke:#000000;stroke-width:1.0;"/><path d="M1284.5,462.5 L1297.5,462.5 C1361.3324,462.5 1431.621,462.5 1492.6938,462.5 " fill="none" style="stroke:#000000;stroke-width:1.0;stroke-dasharray:3.0,3.0;"/><path d="M1492.6938,465.6138 L1495.0291,462.5 L1492.6938,459.3862 L1500.4782,462.5 L1492.6938,465.6138 " fill="#000000" style="stroke:#000000;stroke-width:1.0;"/><ellipse cx="1284.5" cy="462.5" fill="#000000" rx="3" ry="3" style="stroke:#000000;stroke-width:1.0;"/><path d="M834,433.5 L847,433.5 C984.0982,433.5 1146.4363,444.0008 1220.7161,449.3894 " fill="none" style="stroke:#000000;stroke-width:1.0;stroke-dasharray:3.0,3.0;"/><path d="M1220.489,452.4947 L1223.0452,449.5597 L1220.9433,446.284 L1228.4796,449.9573 L1220.489,452.4947 " fill="#000000" style="stroke:#000000;stroke-width:1.0;"/><ellipse cx="834" cy="433.5" fill="#000000" rx="3" ry="3" style="stroke:#000000;stroke-width:1.0;"/><path d="M584,384.5 L597,384.5 C613.4924,384.5 616.8264,390.273 633,393.5 C698.9844,406.6652 778.2542,416.9312 813.943,421.2611 " fill="none" style="stroke:#000000;stroke-width:1.0;stroke-dasharray:3.0,3.0;"/><path d="M813.5729,424.3466 L816.2572,421.5387 L814.3132,418.1756 L821.6568,422.1865 L813.5729,424.3466 " fill="#000000" style="stroke:#000000;stroke-width:1.0;"/><ellipse cx="584" cy="384.5" fill="#000000" rx="3" ry="3" style="stroke:#000000;stroke-width:1.0;"/><!--MD5=[f00cce5f041af9d4ba32f086bf0725f1]
@startjson
{
  "abilities": [
    {
      "ability": {
        "name": "blaze",
        "url": "https://pokeapi.co/api/v2/ability/66/"
      },
      "is_hidden": false,
      "slot": 1
    },
    {
      "ability": {
        "name": "solar-power",
        "url": "https://pokeapi.co/api/v2/ability/94/"
      },
      "is_hidden": true,
      "slot": 3
    }
  ],
  "base_experience": 267,
  "forms": [
    {
      "name": "charizard",
      "url": "https://pokeapi.co/api/v2/pokemon-form/6/"
    }
  ],
  "height": 17,
  "held_items": [],
  "id": 6,
  "is_default": true,
  "location_area_encounters": "https://pokeapi.co/api/v2/pokemon/6/encounters",
  "name": "charizard",
  "order": 7,
  "past_types": [],
  "species": {
    "name": "charizard",
    "url": "https://pokeapi.co/api/v2/pokemon-species/6/"
  },
  "types": [
    {
      "slot": 1,
      "type": {
        "name": "fire",
        "url": "https://pokeapi.co/api/v2/type/10/"
      }
    },
    {
      "slot": 2,
      "type": {
        "name": "flying",
        "url": "https://pokeapi.co/api/v2/type/3/"
      }
    }
  ],
  "weight": 905
}
@endjson

PlantUML version 1.2022.13beta7(Unknown compile time)
(GPL source distribution)
Java Runtime: Java(TM) SE Runtime Environment
JVM: Java HotSpot(TM) 64-Bit Server VM
Default Encoding: UTF-8
Language: en
Country: US
--></g></svg>