<?xml version="1.0" encoding="UTF-8" standalone="no"?><svg xmlns="http://www.w3.org/2000/svg" xmlns:xlink="http://www.w3.org/1999/xlink" contentStyleType="text/css" height="400px" preserveAspectRatio="none" style="width:550px;height:400px;background:#FFFFFF;" version="1.1" viewBox="0 0 550 400" width="550px" zoomAndPan="magnify"><defs/><g><rect fill="none" height="104.5313" style="stroke:#000000;stroke-width:1.5;" width="318.5" x="226" y="171.6953"/><line style="stroke:#181818;stroke-width:0.5;stroke-dasharray:5.0,5.0;" x1="45" x2="45" y1="67.2969" y2="322.3594"/><line style="stroke:#181818;stroke-width:0.5;stroke-dasharray:5.0,5.0;" x1="256" x2="256" y1="67.2969" y2="322.3594"/><line style="stroke:#181818;stroke-width:0.5;stroke-dasharray:5.0,5.0;" x1="437.5" x2="437.5" y1="67.2969" y2="322.3594"/><line style="stroke:#181818;stroke-width:0.5;stroke-dasharray:5.0,5.0;" x1="509.5" x2="509.5" y1="67.2969" y2="322.3594"/><rect fill="#E2E2F0" height="30.2969" rx="2.5" ry="2.5" style="stroke:#181818;stroke-width:0.5;" width="80" x="5" y="36"/><text fill="#000000" font-family="sans-serif" font-size="14" lengthAdjust="spacing" textLength="66" x="12" y="55.9951">Frontend</text><rect fill="#E2E2F0" height="30.2969" rx="2.5" ry="2.5" style="stroke:#181818;stroke-width:0.5;" width="80" x="5" y="321.3594"/><text fill="#000000" font-family="sans-serif" font-size="14" lengthAdjust="spacing" textLength="66" x="12" y="341.3545">Frontend</text><rect fill="#E2E2F0" height="30.2969" rx="2.5" ry="2.5" style="stroke:#181818;stroke-width:0.5;" width="40" x="236" y="36"/><text fill="#000000" font-family="sans-serif" font-size="14" lengthAdjust="spacing" textLength="26" x="243" y="55.9951">BFF</text><rect fill="#E2E2F0" height="30.2969" rx="2.5" ry="2.5" style="stroke:#181818;stroke-width:0.5;" width="40" x="236" y="321.3594"/><text fill="#000000" font-family="sans-serif" font-size="14" lengthAdjust="spacing" textLength="26" x="243" y="341.3545">BFF</text><rect fill="#E2E2F0" height="30.2969" rx="2.5" ry="2.5" style="stroke:#181818;stroke-width:0.5;" width="73" x="401.5" y="36"/><text fill="#000000" font-family="sans-serif" font-size="14" lengthAdjust="spacing" textLength="59" x="408.5" y="55.9951">PokéAPI</text><rect fill="#E2E2F0" height="30.2969" rx="2.5" ry="2.5" style="stroke:#181818;stroke-width:0.5;" width="73" x="401.5" y="321.3594"/><text fill="#000000" font-family="sans-serif" font-size="14" lengthAdjust="spacing" textLength="59" x="408.5" y="341.3545">PokéAPI</text><text fill="#000000" font-family="sans-serif" font-size="14" lengthAdjust="spacing" textLength="44" x="484.5" y="63.9951">Cache</text><path d="M491.5,15 C491.5,5 509.5,5 509.5,5 C509.5,5 527.5,5 527.5,15 L527.5,41 C527.5,51 509.5,51 509.5,51 C509.5,51 491.5,51 491.5,41 L491.5,15 " fill="#E2E2F0" style="stroke:#181818;stroke-width:1.5;"/><path d="M491.5,15 C491.5,25 509.5,25 509.5,25 C509.5,25 527.5,25 527.5,15 " fill="none" style="stroke:#181818;stroke-width:1.5;"/><text fill="#000000" font-family="sans-serif" font-size="14" lengthAdjust="spacing" textLength="44" x="484.5" y="334.3545">Cache</text><path d="M491.5,347.6563 C491.5,337.6563 509.5,337.6563 509.5,337.6563 C509.5,337.6563 527.5,337.6563 527.5,347.6563 L527.5,373.6563 C527.5,383.6563 509.5,383.6563 509.5,383.6563 C509.5,383.6563 491.5,383.6563 491.5,373.6563 L491.5,347.6563 " fill="#E2E2F0" style="stroke:#181818;stroke-width:1.5;"/><path d="M491.5,347.6563 C491.5,357.6563 509.5,357.6563 509.5,357.6563 C509.5,357.6563 527.5,357.6563 527.5,347.6563 " fill="none" style="stroke:#181818;stroke-width:1.5;"/><polygon fill="#181818" points="244,94.4297,254,98.4297,244,102.4297,248,98.4297" style="stroke:#181818;stroke-width:1.0;"/><line style="stroke:#181818;stroke-width:1.0;" x1="45" x2="250" y1="98.4297" y2="98.4297"/><text fill="#00FF00" font-family="sans-serif" font-size="13" font-weight="bold" lengthAdjust="spacing" textLength="31" x="52" y="93.3638">GET</text><text fill="#000000" font-family="sans-serif" font-size="13" lengthAdjust="spacing" textLength="152" x="87" y="93.3638">/pokemondata/{name}</text><polygon fill="#181818" points="497.5,123.5625,507.5,127.5625,497.5,131.5625,501.5,127.5625" style="stroke:#181818;stroke-width:1.0;"/><line style="stroke:#181818;stroke-width:1.0;" x1="256" x2="503.5" y1="127.5625" y2="127.5625"/><text fill="#00FF00" font-family="sans-serif" font-size="13" font-weight="bold" lengthAdjust="spacing" textLength="31" x="263" y="122.4966">GET</text><text fill="#000000" font-family="sans-serif" font-size="13" lengthAdjust="spacing" textLength="181" x="298" y="122.4966">Search for data in the cache</text><polygon fill="#181818" points="267,152.6953,257,156.6953,267,160.6953,263,156.6953" style="stroke:#181818;stroke-width:1.0;"/><line style="stroke:#181818;stroke-width:1.0;stroke-dasharray:2.0,2.0;" x1="261" x2="508.5" y1="156.6953" y2="156.6953"/><text fill="#000000" font-family="sans-serif" font-size="13" lengthAdjust="spacing" textLength="81" x="273" y="151.6294">Cached data</text><path d="M226,171.6953 L292,171.6953 L292,178.8281 L282,188.8281 L226,188.8281 L226,171.6953 " fill="#EEEEEE" style="stroke:#000000;stroke-width:1.5;"/><rect fill="none" height="104.5313" style="stroke:#000000;stroke-width:1.5;" width="318.5" x="226" y="171.6953"/><text fill="#000000" font-family="sans-serif" font-size="13" font-weight="bold" lengthAdjust="spacing" textLength="21" x="241" y="184.7622">alt</text><text fill="#000000" font-family="sans-serif" font-size="11" font-weight="bold" lengthAdjust="spacing" textLength="171" x="307" y="183.9058">[data not found in cache]</text><polygon fill="#181818" points="426,205.9609,436,209.9609,426,213.9609,430,209.9609" style="stroke:#181818;stroke-width:1.0;"/><line style="stroke:#181818;stroke-width:1.0;" x1="256" x2="432" y1="209.9609" y2="209.9609"/><text fill="#00FF00" font-family="sans-serif" font-size="13" font-weight="bold" lengthAdjust="spacing" textLength="31" x="263" y="204.895">GET</text><text fill="#000000" font-family="sans-serif" font-size="13" lengthAdjust="spacing" textLength="123" x="298" y="204.895">/pokemon/{name}</text><polygon fill="#181818" points="267,235.0938,257,239.0938,267,243.0938,263,239.0938" style="stroke:#181818;stroke-width:1.0;"/><line style="stroke:#181818;stroke-width:1.0;stroke-dasharray:2.0,2.0;" x1="261" x2="437" y1="239.0938" y2="239.0938"/><text fill="#000000" font-family="sans-serif" font-size="13" lengthAdjust="spacing" textLength="93" x="273" y="234.0278">Pokemon data</text><polygon fill="#181818" points="497.5,264.2266,507.5,268.2266,497.5,272.2266,501.5,268.2266" style="stroke:#181818;stroke-width:1.0;"/><line style="stroke:#181818;stroke-width:1.0;" x1="256" x2="503.5" y1="268.2266" y2="268.2266"/><text fill="#0000FF" font-family="sans-serif" font-size="13" font-weight="bold" lengthAdjust="spacing" textLength="41" x="263" y="263.1606">POST</text><text fill="#000000" font-family="sans-serif" font-size="13" lengthAdjust="spacing" textLength="147" x="308" y="263.1606">Save data in the cache</text><polygon fill="#181818" points="56,300.3594,46,304.3594,56,308.3594,52,304.3594" style="stroke:#181818;stroke-width:1.0;"/><line style="stroke:#181818;stroke-width:1.0;stroke-dasharray:2.0,2.0;" x1="50" x2="255" y1="304.3594" y2="304.3594"/><text fill="#000000" font-family="sans-serif" font-size="13" lengthAdjust="spacing" textLength="140" x="62" y="299.2935">Return pokémon data</text><!--MD5=[1b2cc43795cae160ac6fa38fa7cdd5a2]
@startuml
!$get_method = "<font color=lime><b>GET</b></font>"
!$post_method = "<font color=blue><b>POST</b></font>"

participant "Frontend" as Frontend
participant "BFF" as BFF
participant "PokéAPI" as PokeAPI
database "Cache" as Cache

Frontend -> BFF : $get_method /pokemondata/{name}
BFF -> Cache : $get_method Search for data in the cache
BFF <- - Cache : Cached data

alt data not found in cache
    BFF -> PokeAPI : $get_method /pokemon/{name}
    BFF <- - PokeAPI : Pokemon data
    BFF -> Cache : $post_method Save data in the cache
end

Frontend <- - BFF : Return pokémon data
@enduml

@startuml

participant "Frontend" as Frontend
participant "BFF" as BFF
participant "PokéAPI" as PokeAPI
database "Cache" as Cache

Frontend -> BFF : <font color=lime><b>GET</b></font> /pokemondata/{name}
BFF -> Cache : <font color=lime><b>GET</b></font> Search for data in the cache
BFF <- - Cache : Cached data

alt data not found in cache
    BFF -> PokeAPI : <font color=lime><b>GET</b></font> /pokemon/{name}
    BFF <- - PokeAPI : Pokemon data
    BFF -> Cache : <font color=blue><b>POST</b></font> Save data in the cache
end

Frontend <- - BFF : Return pokémon data
@enduml

PlantUML version 1.2022.14beta3(Unknown compile time)
(GPL source distribution)
Java Runtime: Java(TM) SE Runtime Environment
JVM: Java HotSpot(TM) 64-Bit Server VM
Default Encoding: UTF-8
Language: en
Country: US
--></g></svg>